<svg width="24" height="24" viewBox="0 0 24 24" fill="none" xmlns="http://www.w3.org/2000/svg">
<path d="M8.75001 9.9213H11.6667C11.9761 9.9213 12.2728 9.79839 12.4916 9.57959C12.7104 9.3608 12.8333 9.06406 12.8333 8.75464C12.8333 8.44522 12.7104 8.14847 12.4916 7.92968C12.2728 7.71089 11.9761 7.58797 11.6667 7.58797H10.5V7.00464C10.5 6.69522 10.3771 6.39847 10.1583 6.17968C9.93951 5.96089 9.64276 5.83797 9.33334 5.83797C9.02392 5.83797 8.72718 5.96089 8.50838 6.17968C8.28959 6.39847 8.16668 6.69522 8.16668 7.00464V7.6463C7.45784 7.79024 6.82776 8.19242 6.39878 8.77478C5.96979 9.35713 5.77249 10.0781 5.84518 10.7978C5.91787 11.5174 6.25536 12.1844 6.79215 12.6692C7.32893 13.154 8.0267 13.422 8.75001 13.4213H9.91668C10.0714 13.4213 10.2198 13.4828 10.3292 13.5922C10.4386 13.7016 10.5 13.8499 10.5 14.0046C10.5 14.1593 10.4386 14.3077 10.3292 14.4171C10.2198 14.5265 10.0714 14.588 9.91668 14.588H7.00001C6.69059 14.588 6.39384 14.7109 6.17505 14.9297C5.95626 15.1485 5.83334 15.4452 5.83334 15.7546C5.83334 16.0641 5.95626 16.3608 6.17505 16.5796C6.39384 16.7984 6.69059 16.9213 7.00001 16.9213H8.16668V17.5046C8.16668 17.8141 8.28959 18.1108 8.50838 18.3296C8.72718 18.5484 9.02392 18.6713 9.33334 18.6713C9.64276 18.6713 9.93951 18.5484 10.1583 18.3296C10.3771 18.1108 10.5 17.8141 10.5 17.5046V16.863C11.2088 16.719 11.8389 16.3169 12.2679 15.7345C12.6969 15.1521 12.8942 14.4312 12.8215 13.7115C12.7488 12.9919 12.4113 12.3249 11.8745 11.8401C11.3378 11.3553 10.64 11.0872 9.91668 11.088H8.75001C8.5953 11.088 8.44693 11.0265 8.33753 10.9171C8.22813 10.8077 8.16668 10.6593 8.16668 10.5046C8.16668 10.3499 8.22813 10.2016 8.33753 10.0922C8.44693 9.98276 8.5953 9.9213 8.75001 9.9213ZM22.1667 11.6713H18.6667V1.1713C18.6675 0.965725 18.614 0.763581 18.5115 0.585341C18.4091 0.4071 18.2614 0.259092 18.0833 0.156304C17.906 0.0539074 17.7048 0 17.5 0C17.2952 0 17.094 0.0539074 16.9167 0.156304L13.4167 2.16297L9.91668 0.156304C9.73932 0.0539074 9.53813 0 9.33334 0C9.12855 0 8.92737 0.0539074 8.75001 0.156304L5.25001 2.16297L1.75001 0.156304C1.57265 0.0539074 1.37147 0 1.16668 0C0.961883 0 0.760698 0.0539074 0.583342 0.156304C0.405304 0.259092 0.257588 0.4071 0.15515 0.585341C0.0527132 0.763581 -0.000806965 0.965725 9.19669e-06 1.1713V19.838C9.19669e-06 20.7662 0.368758 21.6565 1.02514 22.3128C1.68151 22.9692 2.57175 23.338 3.50001 23.338H19.8333C20.7616 23.338 21.6518 22.9692 22.3082 22.3128C22.9646 21.6565 23.3333 20.7662 23.3333 19.838V12.838C23.3333 12.5286 23.2104 12.2318 22.9916 12.013C22.7728 11.7942 22.4761 11.6713 22.1667 11.6713ZM3.50001 21.0046C3.19059 21.0046 2.89384 20.8817 2.67505 20.6629C2.45626 20.4441 2.33334 20.1474 2.33334 19.838V3.18964L4.66668 4.51964C4.84674 4.61368 5.04687 4.6628 5.25001 4.6628C5.45315 4.6628 5.65328 4.61368 5.83334 4.51964L9.33334 2.51297L12.8333 4.51964C13.0134 4.61368 13.2135 4.6628 13.4167 4.6628C13.6198 4.6628 13.8199 4.61368 14 4.51964L16.3333 3.18964V19.838C16.3365 20.236 16.4075 20.6305 16.5433 21.0046H3.50001ZM21 19.838C21 20.1474 20.8771 20.4441 20.6583 20.6629C20.4395 20.8817 20.1428 21.0046 19.8333 21.0046C19.5239 21.0046 19.2272 20.8817 19.0084 20.6629C18.7896 20.4441 18.6667 20.1474 18.6667 19.838V14.0046H21V19.838Z" fill="#0234FC"/>
</svg>
